<svg xmlns="http://www.w3.org/2000/svg" width="640" height="640" viewBox="0 0 640 640" fill="none">
  <g opacity="0.55" stroke="#C9A96E" stroke-width="1.25">
    <path d="M321 40C289 118 286 172 311 238C338 311 391 356 429 414C461 464 474 516 463 584" />
    <path d="M320 145C273 154 229 183 209 222C189 261 191 306 211 333C232 359 271 365 308 343" />
    <path d="M338 227C392 214 441 228 469 259C499 292 502 342 474 374C446 405 395 409 350 388" />
    <path d="M314 342C273 339 234 357 213 384C190 412 190 451 212 476C235 503 275 507 311 490" />
    <path d="M347 420C392 408 434 419 460 445C488 473 492 512 470 543C447 573 406 581 366 564" />
    <path d="M308 243C287 205 250 177 210 168C170 159 132 171 110 200C88 229 87 269 106 297C126 325 163 337 199 329" />
    <path d="M353 386C397 351 452 333 503 338C555 343 596 371 612 415" />
    <path d="M320 134C343 92 387 59 435 49C482 39 526 51 551 79C576 107 580 149 561 185C542 219 502 241 458 244" />
  </g>
</svg>
